G04 PROTEUS GERBER X2 FILE*
%TF.GenerationSoftware,Labcenter,Proteus,8.17-SP2-Build37159*%
%TF.CreationDate,2024-06-19T10:01:46+00:00*%
%TF.FileFunction,AssemblyDrawing,Top*%
%TF.FilePolarity,Positive*%
%TF.Part,Single*%
%TF.SameCoordinates,{53f4b883-0e9e-4027-bc31-63d81b4ca661}*%
%FSLAX45Y45*%
%MOMM*%
G01*
%TA.AperFunction,Profile*%
%ADD16C,0.101600*%
%TA.AperFunction,Material*%
%ADD18C,0.101600*%
%ADD25C,1.219200*%
%ADD26C,0.195070*%
%ADD27C,0.284480*%
%ADD28C,0.050000*%
%ADD29C,0.632000*%
%ADD72C,0.480710*%
%ADD73C,0.812800*%
%ADD30C,0.179490*%
%ADD31C,0.711200*%
%ADD32C,0.113450*%
%ADD33C,0.117340*%
%ADD34C,0.171190*%
%TD.AperFunction*%
D16*
X-8030000Y-2450000D02*
X-3520000Y-2450000D01*
X-3520000Y+3630000D01*
X-8030000Y+3630000D01*
X-8030000Y-2450000D01*
D18*
X-7137080Y+2583920D02*
X-6110920Y+2583920D01*
X-6110920Y+3356080D01*
X-7137080Y+3356080D01*
X-7137080Y+2583920D01*
D25*
X-6370000Y+2970000D02*
X-6370000Y+2970000D01*
D26*
X-6764512Y+2794436D02*
X-6745005Y+2794436D01*
X-6725498Y+2816381D01*
X-6725498Y+2904163D01*
X-6745005Y+2926109D01*
X-6842541Y+2926109D01*
X-6823034Y+2991945D02*
X-6842541Y+3013891D01*
X-6842541Y+3079727D01*
X-6823034Y+3101673D01*
X-6803527Y+3101673D01*
X-6784020Y+3079727D01*
X-6784020Y+3013891D01*
X-6764512Y+2991945D01*
X-6725498Y+2991945D01*
X-6725498Y+3101673D01*
D18*
X-7419080Y+790920D02*
X-5757920Y+790920D01*
X-5757920Y+1309080D01*
X-7419080Y+1309080D01*
X-7419080Y+790920D01*
D27*
X-6972548Y+964656D02*
X-6972548Y+1135344D01*
X-6812528Y+1135344D01*
X-6780524Y+1106896D01*
X-6780524Y+1078448D01*
X-6812528Y+1050000D01*
X-6780524Y+1021552D01*
X-6780524Y+993104D01*
X-6812528Y+964656D01*
X-6972548Y+964656D01*
X-6972548Y+1050000D02*
X-6812528Y+1050000D01*
X-6716516Y+964656D02*
X-6716516Y+1135344D01*
X-6556496Y+1135344D01*
X-6524492Y+1106896D01*
X-6524492Y+1078448D01*
X-6556496Y+1050000D01*
X-6716516Y+1050000D01*
X-6556496Y+1050000D02*
X-6524492Y+1021552D01*
X-6524492Y+964656D01*
X-6396476Y+1078448D02*
X-6332468Y+1135344D01*
X-6332468Y+964656D01*
D28*
X-6705000Y-840000D02*
X-6705086Y-837924D01*
X-6705788Y-833771D01*
X-6707258Y-829618D01*
X-6709660Y-825465D01*
X-6713333Y-821366D01*
X-6717486Y-818357D01*
X-6721639Y-816440D01*
X-6725792Y-815357D01*
X-6729945Y-815000D01*
X-6730000Y-815000D01*
X-6755000Y-840000D02*
X-6754914Y-837924D01*
X-6754212Y-833771D01*
X-6752742Y-829618D01*
X-6750340Y-825465D01*
X-6746667Y-821366D01*
X-6742514Y-818357D01*
X-6738361Y-816440D01*
X-6734208Y-815357D01*
X-6730055Y-815000D01*
X-6730000Y-815000D01*
X-6755000Y-840000D02*
X-6754914Y-842076D01*
X-6754212Y-846229D01*
X-6752742Y-850382D01*
X-6750340Y-854535D01*
X-6746667Y-858634D01*
X-6742514Y-861643D01*
X-6738361Y-863560D01*
X-6734208Y-864643D01*
X-6730055Y-865000D01*
X-6730000Y-865000D01*
X-6705000Y-840000D02*
X-6705086Y-842076D01*
X-6705788Y-846229D01*
X-6707258Y-850382D01*
X-6709660Y-854535D01*
X-6713333Y-858634D01*
X-6717486Y-861643D01*
X-6721639Y-863560D01*
X-6725792Y-864643D01*
X-6729945Y-865000D01*
X-6730000Y-865000D01*
X-6695000Y-840000D02*
X-6765000Y-840000D01*
X-6730000Y-805000D02*
X-6730000Y-875000D01*
X-7655000Y+85000D02*
X-7655000Y-840000D01*
X-7650328Y-936133D01*
X-7636595Y-1029133D01*
X-7614224Y-1118575D01*
X-7583638Y-1204038D01*
X-7545261Y-1285097D01*
X-7499516Y-1361329D01*
X-7446827Y-1432310D01*
X-7387617Y-1497617D01*
X-7322310Y-1556827D01*
X-7251329Y-1609516D01*
X-7175097Y-1655261D01*
X-7094038Y-1693638D01*
X-7008575Y-1724224D01*
X-6919133Y-1746595D01*
X-6826133Y-1760328D01*
X-6730000Y-1765000D01*
X-6633867Y-1760328D01*
X-6540867Y-1746595D01*
X-6451425Y-1724224D01*
X-6365962Y-1693638D01*
X-6284903Y-1655261D01*
X-6208671Y-1609516D01*
X-6137690Y-1556827D01*
X-6072383Y-1497617D01*
X-6013173Y-1432310D01*
X-5960484Y-1361329D01*
X-5914739Y-1285097D01*
X-5876362Y-1204038D01*
X-5845776Y-1118575D01*
X-5823405Y-1029133D01*
X-5809672Y-936133D01*
X-5805000Y-840000D01*
X-5809672Y-743867D01*
X-5823405Y-650867D01*
X-5845776Y-561425D01*
X-5876362Y-475962D01*
X-5914739Y-394903D01*
X-5960484Y-318671D01*
X-6013173Y-247690D01*
X-6072383Y-182383D01*
X-6137690Y-123173D01*
X-6208671Y-70484D01*
X-6284903Y-24739D01*
X-6365962Y+13638D01*
X-6451425Y+44224D01*
X-6540867Y+66595D01*
X-6633867Y+80328D01*
X-6730000Y+85000D01*
X-7655000Y+85000D01*
D29*
X-6355000Y-840000D02*
X-6355000Y-840000D01*
D72*
X-6925907Y-948161D02*
X-6877835Y-1002241D01*
X-6877835Y-1164482D01*
X-6973978Y-1272642D01*
X-7070121Y-1272642D01*
X-7166264Y-1164482D01*
X-7166264Y-1002241D01*
X-7118192Y-948161D01*
X-7070121Y-731840D02*
X-7166264Y-623679D01*
X-6877835Y-623679D01*
D18*
X-5077080Y+2583920D02*
X-4050920Y+2583920D01*
X-4050920Y+3356080D01*
X-5077080Y+3356080D01*
X-5077080Y+2583920D01*
D25*
X-4310000Y+2970000D02*
X-4310000Y+2970000D01*
D26*
X-4704512Y+2794436D02*
X-4685005Y+2794436D01*
X-4665498Y+2816381D01*
X-4665498Y+2904163D01*
X-4685005Y+2926109D01*
X-4782541Y+2926109D01*
X-4743527Y+3013891D02*
X-4782541Y+3057782D01*
X-4665498Y+3057782D01*
D18*
X-4866080Y+957920D02*
X-4093920Y+957920D01*
X-4093920Y+1349080D01*
X-4866080Y+1349080D01*
X-4866080Y+957920D01*
D73*
X-4734000Y+1090000D02*
X-4734000Y+1090000D01*
D30*
X-4555183Y+1207348D02*
X-4555183Y+1117601D01*
X-4534991Y+1099652D01*
X-4454219Y+1099652D01*
X-4434026Y+1117601D01*
X-4434026Y+1207348D01*
X-4353255Y+1171449D02*
X-4312869Y+1207348D01*
X-4312869Y+1099652D01*
D18*
X-4666080Y-172080D02*
X-4147920Y-172080D01*
X-4147920Y+92080D01*
X-4666080Y+92080D01*
X-4666080Y-172080D01*
D31*
X-4280000Y-40000D02*
X-4280000Y-40000D01*
D32*
X-4516347Y-62691D02*
X-4529111Y-74036D01*
X-4567401Y-74036D01*
X-4592927Y-51345D01*
X-4592927Y-28655D01*
X-4567401Y-5964D01*
X-4529111Y-5964D01*
X-4516347Y-17309D01*
X-4478057Y-17309D02*
X-4465294Y-5964D01*
X-4427004Y-5964D01*
X-4414240Y-17309D01*
X-4414240Y-28655D01*
X-4427004Y-40000D01*
X-4465294Y-40000D01*
X-4478057Y-51345D01*
X-4478057Y-74036D01*
X-4414240Y-74036D01*
D18*
X-5374900Y-818900D02*
X-4181100Y-818900D01*
X-4181100Y-641100D01*
X-5374900Y-641100D01*
X-5374900Y-818900D01*
D31*
X-5286000Y-730000D02*
X-5286000Y-730000D01*
D33*
X-4821382Y-765204D02*
X-4821382Y-694796D01*
X-4755375Y-694796D01*
X-4742173Y-706531D01*
X-4742173Y-718265D01*
X-4755375Y-730000D01*
X-4821382Y-730000D01*
X-4755375Y-730000D02*
X-4742173Y-741735D01*
X-4742173Y-765204D01*
X-4689367Y-718265D02*
X-4662964Y-694796D01*
X-4662964Y-765204D01*
D18*
X-4856080Y-1902580D02*
X-4274420Y-1902580D01*
X-4274420Y-1320920D01*
X-4856080Y-1320920D01*
X-4856080Y-1902580D01*
D73*
X-4724000Y-1580000D02*
X-4724000Y-1580000D01*
D34*
X-4427531Y-1765826D02*
X-4530248Y-1765826D01*
X-4530248Y-1688788D01*
X-4496009Y-1650269D01*
X-4461770Y-1650269D01*
X-4427531Y-1688788D01*
X-4427531Y-1765826D01*
X-4496009Y-1573231D02*
X-4530248Y-1534712D01*
X-4427531Y-1534712D01*
M02*
