G04 PROTEUS GERBER X2 FILE*
%TF.GenerationSoftware,Labcenter,Proteus,8.17-SP2-Build37159*%
%TF.CreationDate,2024-06-19T10:01:46+00:00*%
%TF.FileFunction,Legend,Top*%
%TF.FilePolarity,Positive*%
%TF.Part,Single*%
%TF.SameCoordinates,{53f4b883-0e9e-4027-bc31-63d81b4ca661}*%
%FSLAX45Y45*%
%MOMM*%
G01*
%TA.AperFunction,Profile*%
%ADD16C,0.101600*%
%TA.AperFunction,Material*%
%ADD18C,0.101600*%
%ADD19C,0.120000*%
%ADD70C,0.200000*%
%TD.AperFunction*%
D16*
X-8030000Y-2450000D02*
X-3520000Y-2450000D01*
X-3520000Y+3630000D01*
X-8030000Y+3630000D01*
X-8030000Y-2450000D01*
D18*
X-6116000Y+3351000D02*
X-6116000Y+2589000D01*
X-7132000Y+2589000D02*
X-7132000Y+3351000D01*
X-6116000Y+3351000D02*
X-7132000Y+3351000D01*
X-6116000Y+2589000D02*
X-7132000Y+2589000D01*
X-6730680Y+2507720D02*
X-6730680Y+2495020D01*
X-6717345Y+2482320D01*
X-6664005Y+2482320D01*
X-6650670Y+2495020D01*
X-6650670Y+2558520D01*
X-6610665Y+2545820D02*
X-6597330Y+2558520D01*
X-6557325Y+2558520D01*
X-6543990Y+2545820D01*
X-6543990Y+2533120D01*
X-6557325Y+2520420D01*
X-6597330Y+2520420D01*
X-6610665Y+2507720D01*
X-6610665Y+2482320D01*
X-6543990Y+2482320D01*
X-5763000Y+796000D02*
X-5763000Y+1304000D01*
X-5763000Y+796000D02*
X-7414000Y+796000D01*
X-7414000Y+1177000D02*
X-7414000Y+796000D01*
X-5763000Y+1304000D02*
X-7287000Y+1304000D01*
X-7414000Y+1177000D02*
X-7287000Y+1304000D01*
X-6748520Y+1334480D02*
X-6748520Y+1410680D01*
X-6681845Y+1410680D01*
X-6668510Y+1397980D01*
X-6668510Y+1385280D01*
X-6681845Y+1372580D01*
X-6668510Y+1359880D01*
X-6668510Y+1347180D01*
X-6681845Y+1334480D01*
X-6748520Y+1334480D01*
X-6748520Y+1372580D02*
X-6681845Y+1372580D01*
X-6641840Y+1334480D02*
X-6641840Y+1410680D01*
X-6575165Y+1410680D01*
X-6561830Y+1397980D01*
X-6561830Y+1385280D01*
X-6575165Y+1372580D01*
X-6641840Y+1372580D01*
X-6575165Y+1372580D02*
X-6561830Y+1359880D01*
X-6561830Y+1334480D01*
X-6508490Y+1385280D02*
X-6481820Y+1410680D01*
X-6481820Y+1334480D01*
D19*
X-5830000Y-840000D02*
X-5832503Y-772924D01*
X-5852785Y-638770D01*
X-5894825Y-504616D01*
X-5962189Y-370462D01*
X-6062500Y-236308D01*
X-6195054Y-116237D01*
X-6329208Y-34168D01*
X-6463362Y+19595D01*
X-6597516Y+50195D01*
X-6730000Y+60000D01*
X-7630000Y-840000D02*
X-7627497Y-772924D01*
X-7607215Y-638770D01*
X-7565175Y-504616D01*
X-7497811Y-370462D01*
X-7397500Y-236308D01*
X-7264946Y-116237D01*
X-7130792Y-34168D01*
X-6996638Y+19595D01*
X-6862484Y+50195D01*
X-6730000Y+60000D01*
X-7630000Y-840000D02*
X-7627497Y-907076D01*
X-7607215Y-1041230D01*
X-7565175Y-1175384D01*
X-7497811Y-1309538D01*
X-7397500Y-1443692D01*
X-7264946Y-1563763D01*
X-7130792Y-1645832D01*
X-6996638Y-1699595D01*
X-6862484Y-1730195D01*
X-6730000Y-1740000D01*
X-5830000Y-840000D02*
X-5832503Y-907076D01*
X-5852785Y-1041230D01*
X-5894825Y-1175384D01*
X-5962189Y-1309538D01*
X-6062500Y-1443692D01*
X-6195054Y-1563763D01*
X-6329208Y-1645832D01*
X-6463362Y-1699595D01*
X-6597516Y-1730195D01*
X-6730000Y-1740000D01*
D70*
X-7379000Y-181000D02*
X-7379035Y-180169D01*
X-7379316Y-178505D01*
X-7379906Y-176841D01*
X-7380870Y-175177D01*
X-7382345Y-173536D01*
X-7384009Y-172335D01*
X-7385673Y-171570D01*
X-7387337Y-171139D01*
X-7389000Y-171000D01*
X-7399000Y-181000D02*
X-7398965Y-180169D01*
X-7398684Y-178505D01*
X-7398094Y-176841D01*
X-7397130Y-175177D01*
X-7395655Y-173536D01*
X-7393991Y-172335D01*
X-7392327Y-171570D01*
X-7390663Y-171139D01*
X-7389000Y-171000D01*
X-7399000Y-181000D02*
X-7398965Y-181831D01*
X-7398684Y-183495D01*
X-7398094Y-185159D01*
X-7397130Y-186823D01*
X-7395655Y-188464D01*
X-7393991Y-189665D01*
X-7392327Y-190430D01*
X-7390663Y-190861D01*
X-7389000Y-191000D01*
X-7379000Y-181000D02*
X-7379035Y-181831D01*
X-7379316Y-183495D01*
X-7379906Y-185159D01*
X-7380870Y-186823D01*
X-7382345Y-188464D01*
X-7384009Y-189665D01*
X-7385673Y-190430D01*
X-7387337Y-190861D01*
X-7389000Y-191000D01*
D18*
X-6756670Y+104100D02*
X-6770005Y+91400D01*
X-6810010Y+91400D01*
X-6836680Y+116800D01*
X-6836680Y+142200D01*
X-6810010Y+167600D01*
X-6770005Y+167600D01*
X-6756670Y+154900D01*
X-6703330Y+142200D02*
X-6676660Y+167600D01*
X-6676660Y+91400D01*
X-4056000Y+3351000D02*
X-4056000Y+2589000D01*
X-5072000Y+2589000D02*
X-5072000Y+3351000D01*
X-4056000Y+3351000D02*
X-5072000Y+3351000D01*
X-4056000Y+2589000D02*
X-5072000Y+2589000D01*
X-4670680Y+2507720D02*
X-4670680Y+2495020D01*
X-4657345Y+2482320D01*
X-4604005Y+2482320D01*
X-4590670Y+2495020D01*
X-4590670Y+2558520D01*
X-4537330Y+2533120D02*
X-4510660Y+2558520D01*
X-4510660Y+2482320D01*
X-4861000Y+963000D02*
X-4099000Y+963000D01*
X-4099000Y+1217000D01*
X-4861000Y+1217000D01*
X-4861000Y+963000D01*
X-4861000Y+1217000D02*
X-4861000Y+1344000D01*
X-4099000Y+1344000D01*
X-4099000Y+1217000D01*
X-4861000Y+1217000D02*
X-4734000Y+1344000D01*
X-4734000Y+1217000D02*
X-4607000Y+1344000D01*
X-4607000Y+1217000D02*
X-4480000Y+1344000D01*
X-4480000Y+1217000D02*
X-4353000Y+1344000D01*
X-4353000Y+1217000D02*
X-4226000Y+1344000D01*
X-4226000Y+1217000D02*
X-4099000Y+1344000D01*
X-4586680Y+1450680D02*
X-4586680Y+1387180D01*
X-4573345Y+1374480D01*
X-4520005Y+1374480D01*
X-4506670Y+1387180D01*
X-4506670Y+1450680D01*
X-4453330Y+1425280D02*
X-4426660Y+1450680D01*
X-4426660Y+1374480D01*
X-4153000Y-40000D02*
X-4158080Y-65876D01*
X-4172685Y-89848D01*
X-4195862Y-111438D01*
X-4226660Y-130170D01*
X-4264125Y-145569D01*
X-4307305Y-157158D01*
X-4355248Y-164460D01*
X-4407000Y-167000D01*
X-4661000Y-40000D02*
X-4655920Y-65876D01*
X-4641315Y-89848D01*
X-4618138Y-111438D01*
X-4587340Y-130170D01*
X-4549875Y-145569D01*
X-4506695Y-157158D01*
X-4458752Y-164460D01*
X-4407000Y-167000D01*
X-4153000Y-40000D02*
X-4158080Y-14124D01*
X-4172685Y+9848D01*
X-4195862Y+31438D01*
X-4226660Y+50170D01*
X-4264125Y+65569D01*
X-4307305Y+77158D01*
X-4355248Y+84460D01*
X-4407000Y+87000D01*
X-4661000Y-40000D02*
X-4655920Y-14124D01*
X-4641315Y+9848D01*
X-4618138Y+31438D01*
X-4587340Y+50170D01*
X-4549875Y+65569D01*
X-4506695Y+77158D01*
X-4458752Y+84460D01*
X-4407000Y+87000D01*
X-4433670Y-260980D02*
X-4447005Y-273680D01*
X-4487010Y-273680D01*
X-4513680Y-248280D01*
X-4513680Y-222880D01*
X-4487010Y-197480D01*
X-4447005Y-197480D01*
X-4433670Y-210180D01*
X-4393665Y-210180D02*
X-4380330Y-197480D01*
X-4340325Y-197480D01*
X-4326990Y-210180D01*
X-4326990Y-222880D01*
X-4340325Y-235580D01*
X-4380330Y-235580D01*
X-4393665Y-248280D01*
X-4393665Y-273680D01*
X-4326990Y-273680D01*
X-5159000Y-730000D02*
X-5032000Y-730000D01*
X-5032000Y-793500D02*
X-4524000Y-793500D01*
X-4524000Y-666500D01*
X-5032000Y-666500D01*
X-5032000Y-793500D01*
X-4524000Y-730000D02*
X-4397000Y-730000D01*
X-4884680Y-636020D02*
X-4884680Y-559820D01*
X-4818005Y-559820D01*
X-4804670Y-572520D01*
X-4804670Y-585220D01*
X-4818005Y-597920D01*
X-4884680Y-597920D01*
X-4818005Y-597920D02*
X-4804670Y-610620D01*
X-4804670Y-636020D01*
X-4751330Y-585220D02*
X-4724660Y-559820D01*
X-4724660Y-636020D01*
X-4343000Y-1580000D02*
X-4343827Y-1559517D01*
X-4350545Y-1518550D01*
X-4364563Y-1477583D01*
X-4387341Y-1436616D01*
X-4422141Y-1395771D01*
X-4463108Y-1364155D01*
X-4504075Y-1343608D01*
X-4545042Y-1331371D01*
X-4586009Y-1326238D01*
X-4597000Y-1326000D01*
X-4851000Y-1580000D02*
X-4850173Y-1559517D01*
X-4843455Y-1518550D01*
X-4829437Y-1477583D01*
X-4806659Y-1436616D01*
X-4771859Y-1395771D01*
X-4730892Y-1364155D01*
X-4689925Y-1343608D01*
X-4648958Y-1331371D01*
X-4607991Y-1326238D01*
X-4597000Y-1326000D01*
X-4851000Y-1580000D02*
X-4850173Y-1600483D01*
X-4843455Y-1641450D01*
X-4829437Y-1682417D01*
X-4806659Y-1723384D01*
X-4771859Y-1764229D01*
X-4730892Y-1795845D01*
X-4689925Y-1816392D01*
X-4648958Y-1828629D01*
X-4607991Y-1833762D01*
X-4597000Y-1834000D01*
X-4343000Y-1580000D02*
X-4343827Y-1600483D01*
X-4350545Y-1641450D01*
X-4364563Y-1682417D01*
X-4387341Y-1723384D01*
X-4422141Y-1764229D01*
X-4463108Y-1795845D01*
X-4504075Y-1816392D01*
X-4545042Y-1828629D01*
X-4586009Y-1833762D01*
X-4597000Y-1834000D01*
X-4279500Y-1834000D02*
X-4406500Y-1834000D01*
X-4343000Y-1897500D02*
X-4343000Y-1770500D01*
X-4671930Y-2004180D02*
X-4671930Y-1927980D01*
X-4618590Y-1927980D01*
X-4591920Y-1953380D01*
X-4591920Y-1978780D01*
X-4618590Y-2004180D01*
X-4671930Y-2004180D01*
X-4538580Y-1953380D02*
X-4511910Y-1927980D01*
X-4511910Y-2004180D01*
M02*
